# xmcd CD database file
#
# Track frame offsets:
#	182
#	39107
#	78630
#	121052
#	159230
#	197622
#
# Disc length: 3124 seconds
#
# Revision: 0
# Processed by: cddbd v1.5.2PL0 Copyright (c) Steve Scherf et al.
# Submitted via: CDex 1.70beta2
#
DISCID=3a0c3206
DTITLE=Aphrodisiaca - Esovision
DYEAR=1900
DGENRE=New Age
TTITLE0=Philtre
TTITLE1=Mandragora
TTITLE2=Power of Rhythm
TTITLE3=Ginseng
TTITLE4=Cantharidin
TTITLE5=Arts of Love
EXTD=
EXTT0=
EXTT1=
EXTT2=
EXTT3=
EXTT4=
EXTT5=
PLAYORDER=
